<?xml version="1.0" encoding="UTF-8"?><svg id="icon" xmlns="http://www.w3.org/2000/svg" xmlns:xlink="http://www.w3.org/1999/xlink" viewBox="0 0 216 216"><defs><style>.cls-1{fill:#6f6233;}.cls-2{fill:#fff;opacity:.85;}.cls-3{fill:#15161a;}.cls-4{fill:none;}.cls-5{fill:#b7a45c;}.cls-6{fill:#fdf6d0;}.cls-7{fill:#cdbb6b;}.cls-8{fill:#e9dd9c;}.cls-9{fill:#1d2025;}.cls-10{fill:#a08d4a;}.cls-11{clip-path:url(#clippath);}</style><clipPath id="clippath"><polygon class="cls-4" points="150.74 13.99 116.71 127.9 100.66 127.9 66.53 13.99 22.27 13.99 63.95 136.45 79.58 182.42 84.34 196.4 130.9 196.4 135.71 182.42 152.11 134.81 193.73 13.99 150.74 13.99"/></clipPath></defs><g id="icon-2"><rect id="bg" class="cls-9" x="2.16" y="2.16" width="211.68" height="211.68" rx="39.69" ry="39.69"/><polygon id="ceiling" class="cls-8" points="41.85 41.85 174.15 41.85 141.07 88.16 74.92 88.16 41.85 41.85"/><polygon id="floor" class="cls-5" points="41.85 174.15 174.15 174.15 141.07 127.84 74.92 127.84 41.85 174.15"/><polygon id="wall-left" class="cls-7" points="41.85 41.85 74.92 88.16 74.92 127.84 41.85 174.15 41.85 41.85"/><polygon id="wall-right" class="cls-10" points="174.15 41.85 141.07 88.16 141.07 127.84 174.15 174.15 174.15 41.85"/><rect id="wall-front" class="cls-1" x="74.92" y="88.16" width="66.15" height="39.69"/><rect id="door" class="cls-3" x="98.08" y="94.77" width="19.85" height="33.07"/><rect id="light" class="cls-6" x="94.77" y="58.39" width="26.46" height="8.27"/><g id="clip"><g class="cls-11"><g id="icon-3"><polygon id="ceiling-2" class="cls-8" points="31.39 27.97 185.83 27.97 147.22 82.48 70 82.48 31.39 27.97"/><path id="floor-2" class="cls-5" d="M185.83,182.42H31.39l32.56-45.96,6.05-8.55h30.66l3.91,13.04c2.03,6.87,3.27,12.93,3.69,18.19h.76c.6-5.68,1.91-11.91,3.95-18.7l3.74-12.52h30.51l4.89,6.9,33.72,47.61Z"/><polygon id="wall-left-2" class="cls-7" points="31.39 27.97 70 82.48 70 127.91 31.39 182.42 31.39 27.97"/><polygon id="wall-right-2" class="cls-10" points="185.83 27.97 147.22 82.48 147.22 127.91 185.83 182.42 185.83 27.97"/><rect id="wall-front-2" class="cls-6" x="70" y="82.48" width="77.22" height="45.42"/><rect id="door-2" class="cls-3" x="97.26" y="89.3" width="22.71" height="38.61"/><rect id="light-2" class="cls-6" x="66.88" y="46.14" width="83.47" height="9.08"/></g></g></g><path id="cover" class="cls-2" d="M65.26,196.4l34.04-113.91,3.74-12.52c2.04-6.79,3.35-13.02,3.95-18.7h.76c.43,5.25,1.66,11.32,3.69,18.19l3.91,13.04,34.13,113.91h44.26l-41.68-122.46-15.64-45.96-4.76-13.98h-46.55l-4.82,13.98-16.4,47.61-41.62,120.81h42.99Z"/></g></svg>