<?xml version="1.0" encoding="UTF-8"?><svg id="logo" xmlns="http://www.w3.org/2000/svg" xmlns:xlink="http://www.w3.org/1999/xlink" viewBox="0 0 360 82.29"><defs><style>.cls-1{fill:#6f6233;}.cls-2{fill:#fff;opacity:.85;}.cls-3{fill:#15161a;}.cls-4{letter-spacing:.2em;}.cls-5{letter-spacing:.18em;}.cls-6{fill:none;}.cls-7{letter-spacing:.16em;}.cls-8,.cls-9,.cls-10,.cls-11{isolation:isolate;}.cls-12{fill:#b7a45c;}.cls-13{letter-spacing:.25em;}.cls-14{fill:#fdf6d0;}.cls-15,.cls-11{fill:#cdbb6b;}.cls-16{fill:#e9dd9c;}.cls-9{fill:#9aa3ad;font-family:SegoeUI, 'Segoe UI';font-size:10.29px;}.cls-17{letter-spacing:.18em;}.cls-18{fill:#1d2025;}.cls-19{fill:#a08d4a;}.cls-20{letter-spacing:.22em;}.cls-21{letter-spacing:.25em;}.cls-22{clip-path:url(#clippath);}.cls-10{fill:#f0f2f3;}.cls-10,.cls-11{font-family:SegoeUI-Bold, 'Segoe UI';font-size:29.14px;font-weight:700;}</style><clipPath id="clippath"><polygon class="cls-6" points="52.1 17.72 43.11 47.81 38.87 47.81 29.85 17.72 18.16 17.72 29.17 50.07 33.3 62.21 34.56 65.9 46.86 65.9 48.13 62.21 52.46 49.63 63.45 17.72 52.1 17.72"/></clipPath></defs><g id="logo-2"><rect id="bg" class="cls-18" width="360" height="82.29" rx="10.29" ry="10.29"/><g id="icon-2"><polygon id="ceiling" class="cls-16" points="23.33 25.08 58.28 25.08 49.54 37.31 32.07 37.31 23.33 25.08"/><polygon id="floor" class="cls-12" points="23.33 60.03 58.28 60.03 49.54 47.79 32.07 47.79 23.33 60.03"/><polygon id="wall-left" class="cls-15" points="23.33 25.08 32.07 37.31 32.07 47.79 23.33 60.03 23.33 25.08"/><polygon id="wall-right" class="cls-19" points="58.28 25.08 49.54 37.31 49.54 47.79 58.28 60.03 58.28 25.08"/><rect id="wall-front" class="cls-1" x="32.07" y="37.31" width="17.47" height="10.48"/><rect id="door" class="cls-3" x="38.19" y="39.06" width="5.24" height="8.74"/><rect id="light" class="cls-14" x="37.31" y="29.44" width="6.99" height="2.18"/><g id="clip"><g class="cls-22"><g id="icon-3"><polygon id="ceiling-2" class="cls-16" points="20.57 21.41 61.37 21.41 51.17 35.81 30.77 35.81 20.57 21.41"/><path id="floor-2" class="cls-12" d="M61.37,62.21H20.57l8.6-12.14,1.6-2.26h8.1l1.03,3.44c.54,1.81.86,3.42.98,4.8h.2c.16-1.5.5-3.15,1.04-4.94l.99-3.31h8.06l1.29,1.82,8.91,12.58Z"/><polygon id="wall-left-2" class="cls-15" points="20.57 21.41 30.77 35.81 30.77 47.81 20.57 62.21 20.57 21.41"/><polygon id="wall-right-2" class="cls-19" points="61.37 21.41 51.17 35.81 51.17 47.81 61.37 62.21 61.37 21.41"/><rect id="wall-front-2" class="cls-14" x="30.77" y="35.81" width="20.4" height="12"/><rect id="door-2" class="cls-3" x="37.97" y="37.61" width="6" height="10.2"/><rect id="light-2" class="cls-14" x="29.94" y="26.21" width="22.05" height="2.4"/></g></g></g><path id="cover" class="cls-2" d="M29.52,65.9l8.99-30.09.99-3.31c.54-1.79.89-3.44,1.04-4.94h.2c.11,1.39.44,2.99.98,4.8l1.03,3.44,9.02,30.09h11.69l-11.01-32.35-4.13-12.14-1.26-3.69h-12.3l-1.27,3.69-4.33,12.58-11,31.92h11.36Z"/></g><g id="main-text" class="cls-8"><text class="cls-10" transform="translate(87.43 48)"><tspan class="cls-5" x="0" y="0">B</tspan><tspan class="cls-7" x="23.81" y="0">A</tspan><tspan class="cls-5" x="48.99" y="0">CK</tspan></text><text class="cls-11" transform="translate(183.83 48)"><tspan class="cls-17" x="0" y="0">VI</tspan><tspan class="cls-4" x="38.93" y="0">E</tspan><tspan class="cls-5" x="60.15" y="0">WS</tspan></text></g><text id="sub-text" class="cls-9" transform="translate(89.14 66.86)"><tspan class="cls-21" x="0" y="0">INFINITE HALLS FOR VS</tspan><tspan class="cls-20" x="161.53" y="0">C</tspan><tspan class="cls-13" x="170.2" y="0">ODE</tspan></text></g></svg>